<?xml version="1.0" ?><!DOCTYPE svg  PUBLIC '-//W3C//DTD SVG 1.1//EN'  'http://www.w3.org/Graphics/SVG/1.1/DTD/svg11.dtd'><svg enable-background="new 0 0 64 64" height="64px" id="Layer_1" version="1.1" viewBox="0 0 64 64" width="64px" xml:space="preserve" xmlns="http://www.w3.org/2000/svg" xmlns:xlink="http://www.w3.org/1999/xlink"><path d="M56.525,24.533c0-13.548-10.982-24.528-24.529-24.528c-13.356,0-24.2,10.683-24.501,23.968  c-0.009-0.004-0.02-0.004-0.028-0.004c-0.006,0.12,0.013,0.241,0.01,0.362c-0.001,0.067-0.01,0.135-0.01,0.202  c0,0.244,0.03,0.479,0.037,0.72C7.78,41.191,25.795,58.009,31.996,63.995c17.415-14.119,22.485-27.216,23.95-34.199  c0.053-0.245,0.1-0.489,0.145-0.734c0.141-0.752,0.239-1.426,0.307-2.004c0-0.007,0.002-0.014,0.002-0.021  C56.583,25.423,56.525,24.533,56.525,24.533z" fill="#241F20"/></svg>