<svg width="16" height="16" xmlns="http://www.w3.org/2000/svg">

 <g>
  <title>background</title>
  <rect fill="none" id="canvas_background" height="402" width="582" y="-1" x="-1"/>
 </g>
 <g>
  <title>Layer 1</title>
  <path fill="#ffffff" id="svg_1" d="m14,8c-0.609,0 -0.898,0.43 -1,0.883c-0.365,1.632999 -1.916,4.117 -5,4.117c-0.757,0 -1.473,-0.172 -2.114,-0.474l0.528,-0.526c0.359,-0.344 0.586,-0.555 0.586,-1c0,-0.523 -0.438,-1 -1,-1l-3,0c-0.609,0 -1,0.492 -1,1l0,3c0,0.541 0.428,1 1,1c0.484,0 0.688,-0.273 1,-0.594l0.408,-0.407001c1.05,0.633 2.277,1.001 3.592,1.001c4.99,0 7,-4.75 7,-5.938c0,-0.726 -0.531,-1.062 -1,-1.062zm-11,-0.883c0.365,-1.632 1.916,-4.117 5,-4.117c0.757,0 1.473,0.171 2.114,0.473l-0.528,0.527c-0.359,0.344 -0.586,0.555 -0.586,1c0,0.523 0.438,1 1,1l3,0c0.609,0 1,-0.492 1,-1l0,-3c0,-0.541 -0.428,-1 -1,-1c-0.484,0 -0.688,0.273 -1,0.594l-0.408,0.407c-1.05,-0.633 -2.277,-1.001 -3.592,-1.001c-4.99,0 -7,4.75 -7,5.938c0,0.726 0.531,1.062 1,1.062c0.609,0 0.898,-0.43 1,-0.883z"/>
 </g>
</svg>